<svg xmlns="http://www.w3.org/2000/svg" viewBox="0 0 950 200"><path d="M 875 86.858 C 861.25 86.858 850 75.608 850 61.858 L 850 50 C 850 36.25 861.25 25 875 25 L 875 25 C 888.75 25 900 36.25 900 50 L 900 61.858 C 900 75.608 888.75 86.858 875 86.858 L 875 86.858 Z M 400 162.499 C 400 176.249 388.75 187.499 375 187.499 C 361.25 187.499 350 176.249 350 162.499 L 350 75 C 350 61.25 361.25 50 375 50 C 388.75 50 400 61.25 400 75 L 400 162.499 Z M 925 0 C 911.25 0 888.75 0 875 0 L 875 0 C 861.25 0 838.75 0 825 0 L 825 0 C 811.25 0 800 11.25 800 25 L 800 25 C 800 38.75 788.75 50 775 50 L 775 50 C 761.25 50 750 60.614 750 73.586 C 750 86.558 738.75 97.172 725 97.172 L 725 97.172 C 711.25 97.172 700 85.922 700 72.172 L 700 25 C 700 11.25 688.75 0 675 0 L 675 0 C 661.25 0 638.75 0 625 0 L 625 0 C 611.25 0 588.75 0 575 0 L 575 0 C 561.25 0 550 8.438 550 18.75 C 550 29.062 538.75 37.5 525 37.5 L 525 37.5 C 511.25 37.5 500 48.75 500 62.5 L 500 125 C 500 138.75 488.75 150 475 150 C 461.25 150 450 138.75 450 125 L 450 25 C 450 11.25 438.75 0 425 0 L 425 0 C 411.25 0 388.75 0 375 0 C 361.25 0 350 0 350 0 C 350 0 338.75 0 325 0 L 325 0 C 311.25 0 300 11.25 300 25 L 300 25 C 300 38.75 288.75 50 275 50 C 261.25 50 250 38.75 250 25 L 250 25 C 250 11.25 238.75 0 225 0 L 25 0 C 11.25 0 0 11.25 0 25 L 0 25 C 0 38.75 0 50 0 50 C 0 50 0 61.25 0 75 L 0 75 C 0 88.75 11.25 100 25 100 L 74.135 100 C 87.885 100 99.135 111.25 99.135 125 L 99.135 125 C 99.135 138.75 87.885 150 74.135 150 L 25 150 C 11.25 150 0 161.25 0 175 L 0 175 C 0 188.75 11.25 200 25 200 L 175 200 C 188.75 200 200 188.75 200 175 L 200 175 C 200 161.25 200 138.75 200 125 L 200 125 C 200 111.25 188.75 100 175 100 L 135.653 100 C 121.903 100 110.653 88.75 110.653 75 L 110.653 75 C 110.653 61.25 121.903 50 135.653 50 L 225 50 C 238.75 50 250 61.25 250 75 L 250 175 C 250 188.75 261.25 200 275 200 L 275 200 C 288.75 200 300 200 300 200 C 300 200 311.25 200 325 200 L 325 200 C 338.75 200 350 200 350 200 C 350 200 361.25 200 375 200 C 388.75 200 400 200 400 200 C 400 200 411.25 200 425 200 L 425 200 C 438.75 200 450 190.464 450 178.809 C 450 167.153 461.25 157.617 475 157.617 C 488.75 157.617 500 167.153 500 178.809 C 500 190.464 511.25 200 525 200 L 525 200 C 538.75 200 550 190.464 550 178.809 C 550 167.153 550 155.903 550 153.809 C 550 151.714 550 138.75 550 125 L 550 75 C 550 61.25 561.25 50 575 50 L 575 50 C 588.75 50 600 61.25 600 75 L 600 175 C 600 188.75 611.25 200 625 200 L 625 200 C 638.75 200 661.25 200 675 200 L 675 200 C 688.75 200 700 188.75 700 175 L 700 134.553 C 700 120.803 711.25 109.553 725 109.553 L 725 109.553 C 738.75 109.553 750 120.803 750 134.553 L 750 175 C 750 188.75 761.25 200 775 200 L 775 200 C 788.75 200 811.25 200 825 200 L 825 200 C 838.75 200 850 188.75 850 175 L 850 125 C 850 111.25 861.25 100 875 100 L 875 100 C 888.75 100 900 111.25 900 125 L 900 175 C 900 188.75 911.25 200 925 200 L 925 200 C 938.75 200 950 188.75 950 175 L 950 25 C 950 11.25 938.75 0 925 0 L 925 0 Z" fill="#000" fill-rule="nonzero"/></svg>