<?xml version="1.0" encoding="UTF-8"?>
<svg id="Capa_2" data-name="Capa 2" xmlns="http://www.w3.org/2000/svg" viewBox="0 0 185.99 177.22">
  <defs>
    <style>
      .cls-1 {
        fill: #010101;
      }
    </style>
  </defs>
  <g id="Capa_1-2" data-name="Capa 1">
    <g>
      <path class="cls-1" d="M167.82,37.41c9.99,0,18.17-8.42,18.17-18.71h0C185.99,8.42,177.57,0,167.28,0h0c-10.29,0-18.71,6.31-18.71,14.02,0,7.71-8.42,14.02-18.71,14.02h-17.63c-10.29,0-18.71,0-18.71,0s-8.03,0-17.84,0-17.84,0-17.84,0-6.54,0-14.53,0-14.53,8.42-14.53,18.71v.32c0,10.29-6.48,18.71-14.4,18.71S0,74.19,0,84.48v74.04c0,10.29,6.48,18.71,14.4,18.71h28.93c7.99,0,14.53-8.42,14.53-18.71v-93.05c0-10.29,8.03-18.71,17.84-18.71,9.81,0,17.84,8.42,17.84,18.71v93.05c0,10.29,8.42,18.71,18.71,18.71h18.71c10.29,0,18.71-8.42,18.71-18.71V56.12c0-10.29,8.18-18.71,18.17-18.71Z"/>
      <path class="cls-1" d="M167.82,37.41c9.99,0,18.17-8.42,18.17-18.71h0C185.99,8.42,177.57,0,167.28,0h0c-10.29,0-18.71,6.31-18.71,14.02,0,7.71-8.42,14.02-18.71,14.02h-17.63c-10.29,0-18.71,0-18.71,0s-8.03,0-17.84,0-17.84,0-17.84,0-6.54,0-14.53,0-14.53,8.42-14.53,18.71v.32c0,10.29-6.48,18.71-14.4,18.71S0,74.19,0,84.48v74.04c0,10.29,6.48,18.71,14.4,18.71h28.93c7.99,0,14.53-8.42,14.53-18.71v-93.05c0-10.29,8.03-18.71,17.84-18.71,9.81,0,17.84,8.42,17.84,18.71v93.05c0,10.29,8.42,18.71,18.71,18.71h18.71c10.29,0,18.71-8.42,18.71-18.71V56.12c0-10.29,8.18-18.71,18.17-18.71Z"/>
    </g>
  </g>
</svg>