<?xml version="1.0" encoding="UTF-8"?>
<svg id="Capa_2" data-name="Capa 2" xmlns="http://www.w3.org/2000/svg" viewBox="0 0 187.06 175.38">
  <defs>
    <style>
      .cls-1 {
        fill: #010101;
      }
    </style>
  </defs>
  <g id="Capa_1-2" data-name="Capa 1">
    <g>
      <path class="cls-1" d="M168.35,175.38c10.29,0,18.71-8.42,18.71-18.71h0c0-10.29-8.42-18.71-18.71-18.71h0c-10.29,0-18.71-8.42-18.71-18.71V18.71c0-10.29-8.42-18.71-18.71-18.71h-18.71c-10.29,0-18.71,0-18.71,0s-8.03,0-17.84,0-17.84,0-17.84,0-6.54,0-14.53,0-14.53,8.42-14.53,18.71v.32c0,10.29-6.48,18.71-14.4,18.71S0,46.15,0,56.44v74.04c0,10.29,6.48,18.71,14.4,18.71h28.93c7.99,0,14.53-8.42,14.53-18.71V37.42c0-10.29,8.03-18.71,17.84-18.71s17.84,8.42,17.84,18.71v93.05c0,10.29,8.42,18.71,18.71,18.71h18.71c10.29,0,18.71,5.9,18.71,13.1,0,7.21,8.42,13.1,18.71,13.1h0Z"/>
      <path class="cls-1" d="M168.35,175.38c10.29,0,18.71-8.42,18.71-18.71h0c0-10.29-8.42-18.71-18.71-18.71h0c-10.29,0-18.71-8.42-18.71-18.71V18.71c0-10.29-8.42-18.71-18.71-18.71h-18.71c-10.29,0-18.71,0-18.71,0s-8.03,0-17.84,0-17.84,0-17.84,0-6.54,0-14.53,0-14.53,8.42-14.53,18.71v.32c0,10.29-6.48,18.71-14.4,18.71S0,46.15,0,56.44v74.04c0,10.29,6.48,18.71,14.4,18.71h28.93c7.99,0,14.53-8.42,14.53-18.71V37.42c0-10.29,8.03-18.71,17.84-18.71s17.84,8.42,17.84,18.71v93.05c0,10.29,8.42,18.71,18.71,18.71h18.71c10.29,0,18.71,5.9,18.71,13.1,0,7.21,8.42,13.1,18.71,13.1h0Z"/>
    </g>
  </g>
</svg>