<?xml version="1.0" encoding="UTF-8"?>
<svg id="Capa_2" data-name="Capa 2" xmlns="http://www.w3.org/2000/svg" viewBox="0 0 182.81 149.18">
  <defs>
    <style>
      .cls-1 {
        fill: #010101;
      }
    </style>
  </defs>
  <g id="Capa_1-2" data-name="Capa 1">
    <g>
      <path class="cls-1" d="M145.4,0c-10.29,0-18.71,0-18.71,0s-8.03,0-17.84,0-17.84,0-17.84,0-6.54,0-14.53,0-14.53,8.42-14.53,18.71v.32c0,10.29-6.48,18.71-14.4,18.71s-14.4,7.82-14.4,17.38-7.46,17.38-16.58,17.38c-9.12,0-16.58,8.42-16.58,18.71h0c0,10.29,7.46,18.71,16.58,18.71s16.58,8.42,16.58,18.71v1.87c0,10.29,6.48,18.71,14.4,18.71h28.93c7.99,0,14.53-8.42,14.53-18.71V37.42c0-10.29,8.03-18.71,17.84-18.71s17.84,8.42,17.84,18.71v93.05c0,10.29,8.42,18.71,18.71,18.71h18.71c10.29,0,18.71-8.42,18.71-18.71V18.71c0-10.29-8.42-18.71-18.71-18.71h-18.71Z"/>
      <path class="cls-1" d="M145.4,0c-10.29,0-18.71,0-18.71,0s-8.03,0-17.84,0-17.84,0-17.84,0-6.54,0-14.53,0-14.53,8.42-14.53,18.71v.32c0,10.29-6.48,18.71-14.4,18.71s-14.4,7.82-14.4,17.38-7.46,17.38-16.58,17.38c-9.12,0-16.58,8.42-16.58,18.71h0c0,10.29,7.46,18.71,16.58,18.71s16.58,8.42,16.58,18.71v1.87c0,10.29,6.48,18.71,14.4,18.71h28.93c7.99,0,14.53-8.42,14.53-18.71V37.42c0-10.29,8.03-18.71,17.84-18.71s17.84,8.42,17.84,18.71v93.05c0,10.29,8.42,18.71,18.71,18.71h18.71c10.29,0,18.71-8.42,18.71-18.71V18.71c0-10.29-8.42-18.71-18.71-18.71h-18.71Z"/>
    </g>
  </g>
</svg>