<?xml version="1.0" encoding="UTF-8"?>
<svg id="Capa_2" data-name="Capa 2" xmlns="http://www.w3.org/2000/svg" viewBox="0 0 200 200">
  <g id="Capa_1-2" data-name="Capa 1">
    <g>
      <path d="M175,0h-100C61.25,0,50,0,50,0s-11.25,0-25,0h0C11.25,0,0,11.25,0,25v100c0,13.75,11.25,25,25,25h0c13.75,0,25,11.25,25,25h0c0,13.75,11.25,25,25,25h100c13.75,0,25-11.25,25-25V25C200,11.25,188.75,0,175,0h0ZM150,125c0,13.75-11.25,25-25,25h0c-13.75,0-25-11.25-25-25v-50c0-13.75,11.25-25,25-25h0c13.75,0,25,11.25,25,25v50Z"/>
      <path d="M175,0h-100C61.25,0,50,0,50,0s-11.25,0-25,0h0C11.25,0,0,11.25,0,25v100c0,13.75,11.25,25,25,25h0c13.75,0,25,11.25,25,25h0c0,13.75,11.25,25,25,25h100c13.75,0,25-11.25,25-25V25C200,11.25,188.75,0,175,0h0ZM150,125c0,13.75-11.25,25-25,25h0c-13.75,0-25-11.25-25-25v-50c0-13.75,11.25-25,25-25h0c13.75,0,25,11.25,25,25v50Z"/>
    </g>
  </g>
</svg>