<?xml version="1.0" encoding="UTF-8"?>
<svg id="Capa_2" data-name="Capa 2" xmlns="http://www.w3.org/2000/svg" viewBox="0 0 187.83 187.06">
  <defs>
    <style>
      .cls-1 {
        fill: #010101;
      }
    </style>
  </defs>
  <g id="Capa_1-2" data-name="Capa 1">
    <g>
      <path class="cls-1" d="M38.19,18.71v37.41h0c0,10.29,8.42,18.71,18.71,18.71h32.74c10.29,0,18.71,8.42,18.71,18.71h0c0,10.29-8.42,18.71-18.71,18.71h-32.74c-10.29,0-18.71,8.42-18.71,18.71h0c0,10.29-8.42,18.71-18.71,18.71h-.77c-10.29,0-18.71,8.42-18.71,18.71h0c0,10.29,8.42,18.71,18.71,18.71h1.55c10.29,0,18.71-8.42,18.71-18.71h0c0-10.29,8.42-18.71,18.71-18.71h111.46c10.29,0,18.71-8.42,18.71-18.71h0v-37.41h0c0-10.29-8.42-18.71-18.71-18.71h-32.74c-10.29,0-18.71-8.42-18.71-18.71h0c0-10.29,8.42-18.71,18.71-18.71h32.74c10.29,0,18.71-8.42,18.71-18.71h0c0-10.29-8.42-18.71-18.71-18.71H56.89c-10.29,0-18.71,8.42-18.71,18.71h0Z"/>
      <path class="cls-1" d="M38.19,18.71v37.41h0c0,10.29,8.42,18.71,18.71,18.71h32.74c10.29,0,18.71,8.42,18.71,18.71h0c0,10.29-8.42,18.71-18.71,18.71h-32.74c-10.29,0-18.71,8.42-18.71,18.71h0c0,10.29-8.42,18.71-18.71,18.71h-.77c-10.29,0-18.71,8.42-18.71,18.71h0c0,10.29,8.42,18.71,18.71,18.71h1.55c10.29,0,18.71-8.42,18.71-18.71h0c0-10.29,8.42-18.71,18.71-18.71h111.46c10.29,0,18.71-8.42,18.71-18.71h0v-37.41h0c0-10.29-8.42-18.71-18.71-18.71h-32.74c-10.29,0-18.71-8.42-18.71-18.71h0c0-10.29,8.42-18.71,18.71-18.71h32.74c10.29,0,18.71-8.42,18.71-18.71h0c0-10.29-8.42-18.71-18.71-18.71H56.89c-10.29,0-18.71,8.42-18.71,18.71h0Z"/>
    </g>
  </g>
</svg>