<?xml version="1.0" encoding="UTF-8"?>
<svg id="Capa_2" data-name="Capa 2" xmlns="http://www.w3.org/2000/svg" viewBox="0 0 189.86 189.85">
  <defs>
    <style>
      .cls-1 {
        fill: #010101;
      }
    </style>
  </defs>
  <g id="Capa_1-2" data-name="Capa 1">
    <g>
      <path class="cls-1" d="M189.86,23.73c0-13.05-10.68-23.73-23.73-23.73h-23.73c-13.05,0-23.73,0-23.73.01s-10.18.01-22.63.01c-12.45,0-22.63,0-22.63-.01s-8.29-.01-18.43-.01-18.43,10.68-18.43,23.73v.4c0,13.05-8.22,23.73-18.27,23.73S0,58.55,0,71.6v93.93c0,13.05,8.22,23.73,18.27,23.73h31.66c7.36,0,13.39.13,13.39.3s10.68.3,23.73.3h63.23c13.05,0,23.73-.13,23.73-.3s3.57-.3,7.93-.3,7.93-10.68,7.93-23.73V23.73ZM96.03,23.75c12.45,0,22.63,10.68,22.63,23.73v106.78c0,13.05-10.18,23.73-22.63,23.73s-22.63-10.68-22.63-23.73V47.48c0-13.05,10.18-23.73,22.63-23.73Z"/>
      <path class="cls-1" d="M189.86,23.73c0-13.05-10.68-23.73-23.73-23.73h-23.73c-13.05,0-23.73,0-23.73.01s-10.18.01-22.63.01c-12.45,0-22.63,0-22.63-.01s-8.29-.01-18.43-.01-18.43,10.68-18.43,23.73v.4c0,13.05-8.22,23.73-18.27,23.73S0,58.55,0,71.6v93.93c0,13.05,8.22,23.73,18.27,23.73h31.66c7.36,0,13.39.13,13.39.3s10.68.3,23.73.3h63.23c13.05,0,23.73-.13,23.73-.3s3.57-.3,7.93-.3,7.93-10.68,7.93-23.73V23.73ZM96.03,23.75c12.45,0,22.63,10.68,22.63,23.73v106.78c0,13.05-10.18,23.73-22.63,23.73s-22.63-10.68-22.63-23.73V47.48c0-13.05,10.18-23.73,22.63-23.73Z"/>
    </g>
  </g>
</svg>