<?xml version="1.0" encoding="UTF-8"?>
<svg id="Capa_2" data-name="Capa 2" xmlns="http://www.w3.org/2000/svg" viewBox="0 0 180.12 149.18">
  <defs>
    <style>
      .cls-1 {
        fill: #010101;
      }
    </style>
  </defs>
  <g id="Capa_1-2" data-name="Capa 1">
    <g>
      <path class="cls-1" d="M142.7,0c-10.29,0-18.71,0-18.71,0s-8.03,0-17.84,0-17.84,0-17.84,0-6.54,0-14.53,0-14.53,8.42-14.53,18.71v.32c0,10.29-4.92,18.71-10.93,18.71s-10.93-6.38-10.93-14.18c0-7.8-8.42-14.18-18.71-14.18h0C8.42,9.37,0,17.78,0,28.07h0c0,10.29,6.86,18.71,15.23,18.71s15.23,8.42,15.23,18.71v64.99c0,10.29,6.48,18.71,14.4,18.71h28.93c7.99,0,14.53-8.42,14.53-18.71v-27.83c0-10.29,8.03-18.71,17.84-18.71s17.84,8.42,17.84,18.71v27.83c0,10.29,8.42,18.71,18.71,18.71h18.71c10.29,0,18.71-8.42,18.71-18.71V18.71c0-10.29-8.42-18.71-18.71-18.71h-18.71ZM106.16,65.24c-9.81,0-17.84-8.42-17.84-18.71v-9.11c0-10.29,8.03-18.71,17.84-18.71s17.84,8.42,17.84,18.71v9.11c0,10.29-8.03,18.71-17.84,18.71Z"/>
      <path class="cls-1" d="M142.7,0c-10.29,0-18.71,0-18.71,0s-8.03,0-17.84,0-17.84,0-17.84,0-6.54,0-14.53,0-14.53,8.42-14.53,18.71v.32c0,10.29-4.92,18.71-10.93,18.71s-10.93-6.38-10.93-14.18c0-7.8-8.42-14.18-18.71-14.18h0C8.42,9.37,0,17.78,0,28.07h0c0,10.29,6.86,18.71,15.23,18.71s15.23,8.42,15.23,18.71v64.99c0,10.29,6.48,18.71,14.4,18.71h28.93c7.99,0,14.53-8.42,14.53-18.71v-27.83c0-10.29,8.03-18.71,17.84-18.71s17.84,8.42,17.84,18.71v27.83c0,10.29,8.42,18.71,18.71,18.71h18.71c10.29,0,18.71-8.42,18.71-18.71V18.71c0-10.29-8.42-18.71-18.71-18.71h-18.71ZM106.16,65.24c-9.81,0-17.84-8.42-17.84-18.71v-9.11c0-10.29,8.03-18.71,17.84-18.71s17.84,8.42,17.84,18.71v9.11c0,10.29-8.03,18.71-17.84,18.71Z"/>
    </g>
  </g>
</svg>