<?xml version="1.0" encoding="UTF-8"?>
<svg id="Capa_2" data-name="Capa 2" xmlns="http://www.w3.org/2000/svg" viewBox="0 0 200 200">
  <g id="Capa_1-2" data-name="Capa 1">
    <g>
      <path d="M175,50c13.75,0,25-11.25,25-25h0c0-13.75-11.25-25-25-25H25C11.25,0,0,11.25,0,25h0v50h0c0,13.75,11.25,25,25,25h25c13.75,0,25,11.25,25,25h0c0,13.75-11.25,25-25,25h-25c-13.75,0-25,11.25-25,25h0c0,13.75,11.25,25,25,25h150c13.75,0,25-11.25,25-25h0v-50h0c0-13.75-11.25-25-25-25h-50c-13.75,0-25-11.25-25-25h0c0-13.75,11.25-25,25-25h50Z"/>
      <path d="M175,50c13.75,0,25-11.25,25-25h0c0-13.75-11.25-25-25-25H25C11.25,0,0,11.25,0,25h0v50h0c0,13.75,11.25,25,25,25h25c13.75,0,25,11.25,25,25h0c0,13.75-11.25,25-25,25h-25c-13.75,0-25,11.25-25,25h0c0,13.75,11.25,25,25,25h150c13.75,0,25-11.25,25-25h0v-50h0c0-13.75-11.25-25-25-25h-50c-13.75,0-25-11.25-25-25h0c0-13.75,11.25-25,25-25h50Z"/>
    </g>
  </g>
</svg>