<?xml version="1.0" encoding="UTF-8"?>
<svg id="Capa_2" data-name="Capa 2" xmlns="http://www.w3.org/2000/svg" viewBox="0 0 185.16 187.06">
  <defs>
    <style>
      .cls-1 {
        fill: #010101;
      }
    </style>
  </defs>
  <g id="Capa_1-2" data-name="Capa 1">
    <g>
      <path class="cls-1" d="M166.45,187.06c10.29,0,18.71-8.42,18.71-18.71h0c0-10.29-7.99-18.71-17.75-18.71s-17.75-8.42-17.75-18.71V18.71c0-10.29-8.42-18.71-18.71-18.71h-58.14c-10.29,0-18.71,0-18.71,0s-5.66,0-12.58,0-12.58,8.42-12.58,18.71-6.51,18.71-14.46,18.71S0,45.83,0,56.12v74.82c0,10.29,6.51,18.71,14.46,18.71h115.53c9.76,0,17.75,8.42,17.75,18.71,0,10.29,8.42,18.71,18.71,18.71h0ZM75.69,140.29c-9.81,0-17.84-8.42-17.84-18.71V37.41c0-10.29,8.03-18.71,17.84-18.71s17.84,8.42,17.84,18.71v84.18c0,10.29-8.03,18.71-17.84,18.71Z"/>
      <path class="cls-1" d="M166.45,187.06c10.29,0,18.71-8.42,18.71-18.71h0c0-10.29-7.99-18.71-17.75-18.71s-17.75-8.42-17.75-18.71V18.71c0-10.29-8.42-18.71-18.71-18.71h-58.14c-10.29,0-18.71,0-18.71,0s-5.66,0-12.58,0-12.58,8.42-12.58,18.71-6.51,18.71-14.46,18.71S0,45.83,0,56.12v74.82c0,10.29,6.51,18.71,14.46,18.71h115.53c9.76,0,17.75,8.42,17.75,18.71,0,10.29,8.42,18.71,18.71,18.71h0ZM75.69,140.29c-9.81,0-17.84-8.42-17.84-18.71V37.41c0-10.29,8.03-18.71,17.84-18.71s17.84,8.42,17.84,18.71v84.18c0,10.29-8.03,18.71-17.84,18.71Z"/>
    </g>
  </g>
</svg>