<?xml version="1.0" encoding="UTF-8"?>
<svg id="Capa_2" data-name="Capa 2" xmlns="http://www.w3.org/2000/svg" viewBox="0 0 189.86 189.26">
  <defs>
    <style>
      .cls-1 {
        fill: #010101;
      }
    </style>
  </defs>
  <g id="Capa_1-2" data-name="Capa 1">
    <g>
      <path class="cls-1" d="M142.39,0c-13.05,0-23.73,0-23.73.01s-10.18.01-22.63.01c-12.45,0-22.63,0-22.63-.01s-8.29-.01-18.43-.01-18.43,10.68-18.43,23.73v.4c0,13.05-8.22,23.73-18.27,23.73S0,58.55,0,71.6v93.93c0,13.05,8.22,23.73,18.27,23.73h36.7c10.14,0,18.43-10.68,18.43-23.73v-35.31c0-13.05,10.18-23.73,22.63-23.73s22.63,10.68,22.63,23.73v35.31c0,13.05,10.68,23.73,23.73,23.73h23.73c13.05,0,23.73-10.68,23.73-23.73V23.73c0-13.05-10.68-23.73-23.73-23.73h-23.73ZM96.03,82.77c-12.45,0-22.63-10.68-22.63-23.73v-11.56c0-13.05,10.18-23.73,22.63-23.73,12.45,0,22.63,10.68,22.63,23.73v11.56c0,13.05-10.18,23.73-22.63,23.73Z"/>
      <path class="cls-1" d="M142.39,0c-13.05,0-23.73,0-23.73.01s-10.18.01-22.63.01c-12.45,0-22.63,0-22.63-.01s-8.29-.01-18.43-.01-18.43,10.68-18.43,23.73v.4c0,13.05-8.22,23.73-18.27,23.73S0,58.55,0,71.6v93.93c0,13.05,8.22,23.73,18.27,23.73h36.7c10.14,0,18.43-10.68,18.43-23.73v-35.31c0-13.05,10.18-23.73,22.63-23.73s22.63,10.68,22.63,23.73v35.31c0,13.05,10.68,23.73,23.73,23.73h23.73c13.05,0,23.73-10.68,23.73-23.73V23.73c0-13.05-10.68-23.73-23.73-23.73h-23.73ZM96.03,82.77c-12.45,0-22.63-10.68-22.63-23.73v-11.56c0-13.05,10.18-23.73,22.63-23.73,12.45,0,22.63,10.68,22.63,23.73v11.56c0,13.05-10.18,23.73-22.63,23.73Z"/>
    </g>
  </g>
</svg>