<?xml version="1.0" encoding="UTF-8"?>
<svg id="Capa_2" data-name="Capa 2" xmlns="http://www.w3.org/2000/svg" viewBox="0 0 187.06 187.06">
  <defs>
    <style>
      .cls-1 {
        fill: #010101;
      }
    </style>
  </defs>
  <g id="Capa_1-2" data-name="Capa 1">
    <g>
      <path class="cls-1" d="M166.81,0c-10.29,0-18.71,8.42-18.71,18.71s-8.42,18.71-18.71,18.71H18.71C8.42,37.41,0,45.83,0,56.12h0v37.41h0c0,10.29,8.42,18.71,18.71,18.71h32.74c10.29,0,18.71,8.42,18.71,18.71h0c0,10.29-8.42,18.71-18.71,18.71H18.71c-10.29,0-18.71,8.42-18.71,18.71h0c0,10.29,8.42,18.71,18.71,18.71h112.24c10.29,0,18.71-8.42,18.71-18.71h0v-37.41h0c0-10.29-8.42-18.71-18.71-18.71h-32.74c-10.29,0-18.71-8.42-18.71-18.71h0c0-10.29,8.42-18.71,18.71-18.71h32.74c10.29,0,18.71-8.42,18.71-18.71h0c0-10.29,8.42-18.71,18.71-18.71h0c10.29,0,18.71-8.42,18.71-18.71S178.64,0,168.35,0h-1.55Z"/>
      <path class="cls-1" d="M166.81,0c-10.29,0-18.71,8.42-18.71,18.71s-8.42,18.71-18.71,18.71H18.71C8.42,37.41,0,45.83,0,56.12h0v37.41h0c0,10.29,8.42,18.71,18.71,18.71h32.74c10.29,0,18.71,8.42,18.71,18.71h0c0,10.29-8.42,18.71-18.71,18.71H18.71c-10.29,0-18.71,8.42-18.71,18.71h0c0,10.29,8.42,18.71,18.71,18.71h112.24c10.29,0,18.71-8.42,18.71-18.71h0v-37.41h0c0-10.29-8.42-18.71-18.71-18.71h-32.74c-10.29,0-18.71-8.42-18.71-18.71h0c0-10.29,8.42-18.71,18.71-18.71h32.74c10.29,0,18.71-8.42,18.71-18.71h0c0-10.29,8.42-18.71,18.71-18.71h0c10.29,0,18.71-8.42,18.71-18.71S178.64,0,168.35,0h-1.55Z"/>
    </g>
  </g>
</svg>