<?xml version="1.0" encoding="UTF-8"?>
<svg id="Capa_2" data-name="Capa 2" xmlns="http://www.w3.org/2000/svg" viewBox="0 0 187.83 149.65">
  <defs>
    <style>
      .cls-1 {
        fill: #010101;
      }
    </style>
  </defs>
  <g id="Capa_1-2" data-name="Capa 1">
    <g>
      <path class="cls-1" d="M169.13,37.41c10.29,0,18.71-8.42,18.71-18.71h0c0-10.29-8.42-18.71-18.71-18.71H56.89c-10.29,0-18.71,8.42-18.71,18.71h0c0,10.29-8.42,18.71-18.71,18.71h-.77C8.42,37.41,0,45.83,0,56.12h0c0,10.29,8.42,18.71,18.71,18.71h70.92c10.29,0,18.71,8.42,18.71,18.71h0c0,10.29-8.42,18.71-18.71,18.71h-32.74c-10.29,0-18.71,8.42-18.71,18.71h0c0,10.29,8.42,18.71,18.71,18.71h112.24c10.29,0,18.71-8.42,18.71-18.71h0v-37.41h0c0-10.29-8.42-18.71-18.71-18.71h-32.74c-10.29,0-18.71-8.42-18.71-18.71h0c0-10.29,8.42-18.71,18.71-18.71h32.74Z"/>
      <path class="cls-1" d="M169.13,37.41c10.29,0,18.71-8.42,18.71-18.71h0c0-10.29-8.42-18.71-18.71-18.71H56.89c-10.29,0-18.71,8.42-18.71,18.71h0c0,10.29-8.42,18.71-18.71,18.71h-.77C8.42,37.41,0,45.83,0,56.12h0c0,10.29,8.42,18.71,18.71,18.71h70.92c10.29,0,18.71,8.42,18.71,18.71h0c0,10.29-8.42,18.71-18.71,18.71h-32.74c-10.29,0-18.71,8.42-18.71,18.71h0c0,10.29,8.42,18.71,18.71,18.71h112.24c10.29,0,18.71-8.42,18.71-18.71h0v-37.41h0c0-10.29-8.42-18.71-18.71-18.71h-32.74c-10.29,0-18.71-8.42-18.71-18.71h0c0-10.29,8.42-18.71,18.71-18.71h32.74Z"/>
    </g>
  </g>
</svg>