<?xml version="1.0" encoding="UTF-8"?>
<svg id="Capa_2" data-name="Capa 2" xmlns="http://www.w3.org/2000/svg" viewBox="0 0 200 200">
  <g id="Capa_1-2" data-name="Capa 1">
    <g>
      <path d="M175,0h-100c-13.75,0-25,8.44-25,18.75s-11.25,18.75-25,18.75h0C11.25,37.5,0,48.75,0,62.5v112.5c0,13.75,11.25,25,25,25h0c13.75,0,25-11.25,25-25v-100c0-13.75,11.25-25,25-25h0c13.75,0,25,11.25,25,25v100c0,13.75,11.25,25,25,25h50c13.75,0,25-11.25,25-25V25c0-13.75-11.25-25-25-25h0Z"/>
      <path d="M175,0h-100c-13.75,0-25,8.44-25,18.75s-11.25,18.75-25,18.75h0C11.25,37.5,0,48.75,0,62.5v112.5c0,13.75,11.25,25,25,25h0c13.75,0,25-11.25,25-25v-100c0-13.75,11.25-25,25-25h0c13.75,0,25,11.25,25,25v100c0,13.75,11.25,25,25,25h50c13.75,0,25-11.25,25-25V25c0-13.75-11.25-25-25-25h0Z"/>
    </g>
  </g>
</svg>