<?xml version="1.0" encoding="UTF-8"?>
<svg id="Capa_2" data-name="Capa 2" xmlns="http://www.w3.org/2000/svg" viewBox="0 0 183.05 182.38">
  <defs>
    <style>
      .cls-1 {
        fill: #010101;
      }
    </style>
  </defs>
  <g id="Capa_1-2" data-name="Capa 1">
    <g>
      <path class="cls-1" d="M166.35,37.41c9.19,0,16.7-8.42,16.7-18.71h0c0-10.29-8.42-18.71-18.71-18.71h0c-10.29,0-18.71,7.37-18.71,16.37,0,9-7.52,16.37-16.7,16.37h-56.14c-10.29,0-18.71,0-18.71,0s-5.66,0-12.58,0-12.58,8.42-12.58,18.71-6.51,18.71-14.46,18.71S0,78.56,0,88.85v74.82c0,10.29,6.51,18.71,14.46,18.71h116.48c10.29,0,18.71-8.42,18.71-18.71V56.12c0-10.29,7.52-18.71,16.7-18.71ZM75.69,173.03c-9.81,0-17.84-8.42-17.84-18.71v-84.18c0-10.29,8.03-18.71,17.84-18.71s17.84,8.42,17.84,18.71v84.18c0,10.29-8.03,18.71-17.84,18.71Z"/>
      <path class="cls-1" d="M166.35,37.41c9.19,0,16.7-8.42,16.7-18.71h0c0-10.29-8.42-18.71-18.71-18.71h0c-10.29,0-18.71,7.37-18.71,16.37,0,9-7.52,16.37-16.7,16.37h-56.14c-10.29,0-18.71,0-18.71,0s-5.66,0-12.58,0-12.58,8.42-12.58,18.71-6.51,18.71-14.46,18.71S0,78.56,0,88.85v74.82c0,10.29,6.51,18.71,14.46,18.71h116.48c10.29,0,18.71-8.42,18.71-18.71V56.12c0-10.29,7.52-18.71,16.7-18.71ZM75.69,173.03c-9.81,0-17.84-8.42-17.84-18.71v-84.18c0-10.29,8.03-18.71,17.84-18.71s17.84,8.42,17.84,18.71v84.18c0,10.29-8.03,18.71-17.84,18.71Z"/>
    </g>
  </g>
</svg>