<?xml version="1.0" encoding="UTF-8"?>
<svg id="Capa_2" data-name="Capa 2" xmlns="http://www.w3.org/2000/svg" viewBox="0 0 200 200">
  <g id="Capa_1-2" data-name="Capa 1">
    <g>
      <path d="M175,36.94c-13.75,0-25-8.31-25-18.47S138.75,0,125,0h-50c-13.75,0-25,8.31-25,18.47s-11.25,18.47-25,18.47h0C11.25,36.94,0,48.19,0,61.94v113.06c0,13.75,11.25,25,25,25h0c13.75,0,25-11.25,25-25v-100c0-13.75,11.25-25,25-25h0c13.75,0,25,11.25,25,25v100c0,13.75,11.25,25,25,25h50c13.75,0,25-11.25,25-25V61.94c0-13.75-11.25-25-25-25h0Z"/>
      <path d="M175,36.94c-13.75,0-25-8.31-25-18.47S138.75,0,125,0h-50c-13.75,0-25,8.31-25,18.47s-11.25,18.47-25,18.47h0C11.25,36.94,0,48.19,0,61.94v113.06c0,13.75,11.25,25,25,25h0c13.75,0,25-11.25,25-25v-100c0-13.75,11.25-25,25-25h0c13.75,0,25,11.25,25,25v100c0,13.75,11.25,25,25,25h50c13.75,0,25-11.25,25-25V61.94c0-13.75-11.25-25-25-25h0Z"/>
    </g>
  </g>
</svg>