<?xml version="1.0" encoding="UTF-8"?>
<svg id="Capa_2" data-name="Capa 2" xmlns="http://www.w3.org/2000/svg" viewBox="0 0 200 200">
  <g id="Capa_1-2" data-name="Capa 1">
    <g>
      <path d="M175,50c-13.75,0-25-11.25-25-25h0c0-13.75-11.25-25-25-25h-50c-13.75,0-25,0-25,0s-11.25,0-25,0h0C11.25,0,0,11.25,0,25v150c0,13.75,11.25,25,25,25h0c13.75,0,25-11.25,25-25v-100c0-13.75,11.25-25,25-25h0c13.75,0,25,11.25,25,25v100c0,13.75,11.25,25,25,25h50c13.75,0,25-11.25,25-25v-100c0-13.75-11.25-25-25-25h0Z"/>
      <path d="M175,50c-13.75,0-25-11.25-25-25h0c0-13.75-11.25-25-25-25h-50c-13.75,0-25,0-25,0s-11.25,0-25,0h0C11.25,0,0,11.25,0,25v150c0,13.75,11.25,25,25,25h0c13.75,0,25-11.25,25-25v-100c0-13.75,11.25-25,25-25h0c13.75,0,25,11.25,25,25v100c0,13.75,11.25,25,25,25h50c13.75,0,25-11.25,25-25v-100c0-13.75-11.25-25-25-25h0Z"/>
    </g>
  </g>
</svg>