<?xml version="1.0" encoding="UTF-8"?>
<svg id="Capa_2" data-name="Capa 2" xmlns="http://www.w3.org/2000/svg" viewBox="0 0 200 200">
  <g id="Capa_1-2" data-name="Capa 1">
    <g>
      <path d="M185.46,0H62.5c-6.88,0-12.5,8.31-12.5,18.47s-11.25,18.47-25,18.47h0C11.25,36.94,0,48.19,0,61.94v113.06c0,13.75,11.25,25,25,25h37.5c6.88,0,12.5-11.25,12.5-25v-50c0-13.75,10.33-25,22.96-25s22.96,11.25,22.96,25v50c0,13.75,6.54,25,14.54,25h50c8,0,14.54-11.25,14.54-25V25c0-13.75-6.54-25-14.54-25ZM97.96,87.5c-12.63,0-22.96-11.25-22.96-25v-12.5c0-13.75,10.33-25,22.96-25s22.96,11.25,22.96,25v12.5c0,13.75-10.33,25-22.96,25Z"/>
      <path d="M185.46,0H62.5c-6.88,0-12.5,8.31-12.5,18.47s-11.25,18.47-25,18.47h0C11.25,36.94,0,48.19,0,61.94v113.06c0,13.75,11.25,25,25,25h37.5c6.88,0,12.5-11.25,12.5-25v-50c0-13.75,10.33-25,22.96-25s22.96,11.25,22.96,25v50c0,13.75,6.54,25,14.54,25h50c8,0,14.54-11.25,14.54-25V25c0-13.75-6.54-25-14.54-25ZM97.96,87.5c-12.63,0-22.96-11.25-22.96-25v-12.5c0-13.75,10.33-25,22.96-25s22.96,11.25,22.96,25v12.5c0,13.75-10.33,25-22.96,25Z"/>
    </g>
  </g>
</svg>