<?xml version="1.0" encoding="UTF-8"?>
<svg id="Capa_2" data-name="Capa 2" xmlns="http://www.w3.org/2000/svg" viewBox="0 0 187.06 149.65">
  <defs>
    <style>
      .cls-1 {
        fill: #010101;
      }
    </style>
  </defs>
  <g id="Capa_1-2" data-name="Capa 1">
    <g>
      <path class="cls-1" d="M148.87,74.82h-50.67c-10.29,0-18.71-8.42-18.71-18.71h0c0-10.29,8.42-18.71,18.71-18.71h32.74c10.29,0,18.71-8.42,18.71-18.71h0c0-10.29-8.42-18.71-18.71-18.71H18.71C8.42,0,0,8.42,0,18.71h0v37.41h0c0,10.29,8.42,18.71,18.71,18.71h32.74c10.29,0,18.71,8.42,18.71,18.71h0c0,10.29-8.42,18.71-18.71,18.71H18.71c-10.29,0-18.71,8.42-18.71,18.71h0c0,10.29,8.42,18.71,18.71,18.71h112.24c10.29,0,18.71-8.42,18.71-18.71h0c0-10.29,8.42-18.71,18.71-18.71h0c10.29,0,18.71-8.42,18.71-18.71h0c0-10.29-8.42-18.71-18.71-18.71h-19.48Z"/>
      <path class="cls-1" d="M148.87,74.82h-50.67c-10.29,0-18.71-8.42-18.71-18.71h0c0-10.29,8.42-18.71,18.71-18.71h32.74c10.29,0,18.71-8.42,18.71-18.71h0c0-10.29-8.42-18.71-18.71-18.71H18.71C8.42,0,0,8.42,0,18.71h0v37.41h0c0,10.29,8.42,18.71,18.71,18.71h32.74c10.29,0,18.71,8.42,18.71,18.71h0c0,10.29-8.42,18.71-18.71,18.71H18.71c-10.29,0-18.71,8.42-18.71,18.71h0c0,10.29,8.42,18.71,18.71,18.71h112.24c10.29,0,18.71-8.42,18.71-18.71h0c0-10.29,8.42-18.71,18.71-18.71h0c10.29,0,18.71-8.42,18.71-18.71h0c0-10.29-8.42-18.71-18.71-18.71h-19.48Z"/>
    </g>
  </g>
</svg>