<?xml version="1.0" encoding="UTF-8"?>
<svg id="Capa_2" data-name="Capa 2" xmlns="http://www.w3.org/2000/svg" viewBox="0 0 200 200">
  <g id="Capa_1-2" data-name="Capa 1">
    <g>
      <path d="M175,0h-100c-13.75,0-25,11.25-25,25h0c0,13.75-11.25,25-25,25h0c-13.75,0-25,11.25-25,25v100c0,13.75,11.25,25,25,25h150c13.75,0,25-11.25,25-25V25c0-13.75-11.25-25-25-25h0ZM150,162.5c0,13.75-11.25,25-25,25h0c-13.75,0-25-11.25-25-25v-87.5c0-13.75,11.25-25,25-25h0c13.75,0,25,11.25,25,25v87.5Z"/>
      <path d="M175,0h-100c-13.75,0-25,11.25-25,25h0c0,13.75-11.25,25-25,25h0c-13.75,0-25,11.25-25,25v100c0,13.75,11.25,25,25,25h150c13.75,0,25-11.25,25-25V25c0-13.75-11.25-25-25-25h0ZM150,162.5c0,13.75-11.25,25-25,25h0c-13.75,0-25-11.25-25-25v-87.5c0-13.75,11.25-25,25-25h0c13.75,0,25,11.25,25,25v87.5Z"/>
    </g>
  </g>
</svg>