<?xml version="1.0" encoding="UTF-8"?>
<svg id="Capa_2" data-name="Capa 2" xmlns="http://www.w3.org/2000/svg" viewBox="0 0 189.86 189.86">
  <defs>
    <style>
      .cls-1 {
        fill: #010101;
      }
    </style>
  </defs>
  <g id="Capa_1-2" data-name="Capa 1">
    <g>
      <path class="cls-1" d="M166.13,47.46c13.05,0,23.73-10.68,23.73-23.73h0c0-13.05-10.68-23.73-23.73-23.73H23.73C10.68,0,0,10.68,0,23.73h0v47.46h0c0,13.05,10.68,23.73,23.73,23.73h41.53c13.05,0,23.73,10.68,23.73,23.73h0c0,13.05-10.68,23.73-23.73,23.73H23.73c-13.05,0-23.73,10.68-23.73,23.73h0c0,13.05,10.68,23.73,23.73,23.73h142.39c13.05,0,23.73-10.68,23.73-23.73h0v-47.46h0c0-13.05-10.68-23.73-23.73-23.73h-41.53c-13.05,0-23.73-10.68-23.73-23.73h0c0-13.05,10.68-23.73,23.73-23.73h41.53Z"/>
      <path class="cls-1" d="M166.13,47.46c13.05,0,23.73-10.68,23.73-23.73h0c0-13.05-10.68-23.73-23.73-23.73H23.73C10.68,0,0,10.68,0,23.73h0v47.46h0c0,13.05,10.68,23.73,23.73,23.73h41.53c13.05,0,23.73,10.68,23.73,23.73h0c0,13.05-10.68,23.73-23.73,23.73H23.73c-13.05,0-23.73,10.68-23.73,23.73h0c0,13.05,10.68,23.73,23.73,23.73h142.39c13.05,0,23.73-10.68,23.73-23.73h0v-47.46h0c0-13.05-10.68-23.73-23.73-23.73h-41.53c-13.05,0-23.73-10.68-23.73-23.73h0c0-13.05,10.68-23.73,23.73-23.73h41.53Z"/>
    </g>
  </g>
</svg>